<mxfile host="app.diagrams.net" modified="2021-10-11T09:46:03.073Z" agent="5.0 (Windows NT 10.0; Win64; x64) AppleWebKit/537.36 (KHTML, like Gecko) Chrome/94.0.4606.71 Safari/537.36" etag="vKEIDZKZ2FQ_FBI_IHY9" version="15.5.0" type="github">
  <diagram id="4n4w0kmiUVU8pFzdFYyA" name="Page-1">
    <mxGraphModel dx="782" dy="411" grid="1" gridSize="10" guides="1" tooltips="1" connect="1" arrows="1" fold="1" page="1" pageScale="1" pageWidth="850" pageHeight="1100" math="0" shadow="0">
      <root>
        <mxCell id="0" />
        <mxCell id="1" parent="0" />
        <mxCell id="jrIEUQr6uG9GV9tWBSDz-2" value="" style="points=[[0.35,0,0],[0.98,0.51,0],[1,0.71,0],[0.67,1,0],[0,0.795,0],[0,0.65,0]];verticalLabelPosition=bottom;sketch=0;html=1;verticalAlign=top;aspect=fixed;align=center;pointerEvents=1;shape=mxgraph.cisco19.user;fillColor=#005073;strokeColor=none;" vertex="1" parent="1">
          <mxGeometry x="40" y="260" width="50" height="50" as="geometry" />
        </mxCell>
        <mxCell id="jrIEUQr6uG9GV9tWBSDz-3" value="" style="shape=image;html=1;verticalAlign=top;verticalLabelPosition=bottom;labelBackgroundColor=#ffffff;imageAspect=0;aspect=fixed;image=https://cdn4.iconfinder.com/data/icons/socialcones/508/Github-128.png" vertex="1" parent="1">
          <mxGeometry x="140" y="260" width="50" height="50" as="geometry" />
        </mxCell>
        <mxCell id="jrIEUQr6uG9GV9tWBSDz-4" value="AEM Cloud Manager" style="rounded=1;whiteSpace=wrap;html=1;" vertex="1" parent="1">
          <mxGeometry x="140" y="190" width="50" height="50" as="geometry" />
        </mxCell>
        <mxCell id="jrIEUQr6uG9GV9tWBSDz-5" value="" style="endArrow=none;html=1;strokeWidth=2;rounded=0;edgeStyle=orthogonalEdgeStyle;exitX=1;exitY=0.5;exitDx=0;exitDy=0;exitPerimeter=0;" edge="1" parent="1" source="jrIEUQr6uG9GV9tWBSDz-8">
          <mxGeometry width="50" height="50" relative="1" as="geometry">
            <mxPoint x="170" y="470" as="sourcePoint" />
            <mxPoint x="640" y="20" as="targetPoint" />
          </mxGeometry>
        </mxCell>
        <mxCell id="jrIEUQr6uG9GV9tWBSDz-8" value="" style="line;strokeWidth=2;direction=south;html=1;" vertex="1" parent="1">
          <mxGeometry x="160" y="310" width="10" height="160" as="geometry" />
        </mxCell>
        <mxCell id="jrIEUQr6uG9GV9tWBSDz-9" value="" style="line;strokeWidth=2;direction=south;html=1;" vertex="1" parent="1">
          <mxGeometry x="160" y="20" width="10" height="170" as="geometry" />
        </mxCell>
        <mxCell id="jrIEUQr6uG9GV9tWBSDz-10" value="" style="line;strokeWidth=2;direction=west;html=1;" vertex="1" parent="1">
          <mxGeometry x="170" y="15" width="160" height="10" as="geometry" />
        </mxCell>
        <mxCell id="jrIEUQr6uG9GV9tWBSDz-11" value="" style="aspect=fixed;html=1;points=[];align=center;image;fontSize=12;image=img/lib/azure2/app_services/CDN_Profiles.svg;" vertex="1" parent="1">
          <mxGeometry x="320" width="68" height="40" as="geometry" />
        </mxCell>
        <mxCell id="jrIEUQr6uG9GV9tWBSDz-12" value="" style="line;strokeWidth=2;direction=west;html=1;" vertex="1" parent="1">
          <mxGeometry x="388" y="15" width="250" height="10" as="geometry" />
        </mxCell>
        <mxCell id="jrIEUQr6uG9GV9tWBSDz-14" value="" style="rounded=0;whiteSpace=wrap;html=1;direction=south;" vertex="1" parent="1">
          <mxGeometry x="270" y="90" width="60" height="120" as="geometry" />
        </mxCell>
        <mxCell id="jrIEUQr6uG9GV9tWBSDz-15" value="" style="rounded=0;whiteSpace=wrap;html=1;direction=south;" vertex="1" parent="1">
          <mxGeometry x="220" y="60" width="190" height="380" as="geometry" />
        </mxCell>
        <mxCell id="jrIEUQr6uG9GV9tWBSDz-16" value="" style="rounded=0;whiteSpace=wrap;html=1;direction=west;" vertex="1" parent="1">
          <mxGeometry x="520" y="400" width="80" height="40" as="geometry" />
        </mxCell>
        <mxCell id="jrIEUQr6uG9GV9tWBSDz-17" value="" style="rounded=0;whiteSpace=wrap;html=1;direction=south;" vertex="1" parent="1">
          <mxGeometry x="510" y="250" width="80" height="130" as="geometry" />
        </mxCell>
        <mxCell id="jrIEUQr6uG9GV9tWBSDz-18" value="" style="rounded=0;whiteSpace=wrap;html=1;direction=south;" vertex="1" parent="1">
          <mxGeometry x="510" y="90" width="80" height="130" as="geometry" />
        </mxCell>
        <mxCell id="jrIEUQr6uG9GV9tWBSDz-20" value="" style="whiteSpace=wrap;html=1;aspect=fixed;" vertex="1" parent="1">
          <mxGeometry x="530" y="110" width="40" height="40" as="geometry" />
        </mxCell>
        <mxCell id="jrIEUQr6uG9GV9tWBSDz-21" value="" style="whiteSpace=wrap;html=1;aspect=fixed;" vertex="1" parent="1">
          <mxGeometry x="530" y="170" width="40" height="40" as="geometry" />
        </mxCell>
        <mxCell id="jrIEUQr6uG9GV9tWBSDz-22" value="" style="whiteSpace=wrap;html=1;aspect=fixed;" vertex="1" parent="1">
          <mxGeometry x="530" y="265" width="40" height="40" as="geometry" />
        </mxCell>
        <mxCell id="jrIEUQr6uG9GV9tWBSDz-23" value="" style="whiteSpace=wrap;html=1;aspect=fixed;" vertex="1" parent="1">
          <mxGeometry x="530" y="330" width="40" height="40" as="geometry" />
        </mxCell>
        <mxCell id="jrIEUQr6uG9GV9tWBSDz-24" value="" style="whiteSpace=wrap;html=1;aspect=fixed;" vertex="1" parent="1">
          <mxGeometry x="580" y="290" width="40" height="40" as="geometry" />
        </mxCell>
        <mxCell id="jrIEUQr6uG9GV9tWBSDz-26" value="&lt;font style=&quot;font-size: 10px&quot;&gt;Pipeline&amp;nbsp;&lt;br&gt;Services&lt;/font&gt;" style="whiteSpace=wrap;html=1;aspect=fixed;" vertex="1" parent="1">
          <mxGeometry x="290.5" y="175" width="45" height="45" as="geometry" />
        </mxCell>
        <mxCell id="jrIEUQr6uG9GV9tWBSDz-27" value="&lt;font style=&quot;font-size: 9px&quot;&gt;Maintenance&lt;br&gt;Job&lt;/font&gt;" style="rounded=0;whiteSpace=wrap;html=1;align=left;" vertex="1" parent="1">
          <mxGeometry x="240" y="340" width="150" height="80" as="geometry" />
        </mxCell>
        <mxCell id="jrIEUQr6uG9GV9tWBSDz-30" value="&lt;font style=&quot;font-size: 8px&quot;&gt;publish Tier&lt;br&gt;(auto-scaling)&lt;/font&gt;" style="rounded=0;whiteSpace=wrap;html=1;align=left;" vertex="1" parent="1">
          <mxGeometry x="235" y="80" width="150" height="80" as="geometry" />
        </mxCell>
        <mxCell id="jrIEUQr6uG9GV9tWBSDz-31" value="&lt;font style=&quot;font-size: 8px&quot;&gt;authoring Tier&lt;br&gt;(auto-scaling)&lt;/font&gt;" style="rounded=0;whiteSpace=wrap;html=1;align=left;" vertex="1" parent="1">
          <mxGeometry x="238" y="245" width="150" height="80" as="geometry" />
        </mxCell>
        <mxCell id="jrIEUQr6uG9GV9tWBSDz-33" value="" style="whiteSpace=wrap;html=1;aspect=fixed;" vertex="1" parent="1">
          <mxGeometry x="360" y="190" width="40" height="40" as="geometry" />
        </mxCell>
        <mxCell id="jrIEUQr6uG9GV9tWBSDz-37" value="&lt;font style=&quot;font-size: 10px&quot;&gt;AEM&lt;/font&gt;" style="whiteSpace=wrap;html=1;aspect=fixed;" vertex="1" parent="1">
          <mxGeometry x="295" y="117.5" width="25" height="25" as="geometry" />
        </mxCell>
        <mxCell id="jrIEUQr6uG9GV9tWBSDz-38" value="&lt;font style=&quot;font-size: 10px&quot;&gt;AEM&lt;/font&gt;" style="whiteSpace=wrap;html=1;aspect=fixed;" vertex="1" parent="1">
          <mxGeometry x="330" y="117.5" width="25" height="25" as="geometry" />
        </mxCell>
        <mxCell id="jrIEUQr6uG9GV9tWBSDz-39" value="" style="whiteSpace=wrap;html=1;aspect=fixed;" vertex="1" parent="1">
          <mxGeometry x="330" y="92.5" width="25" height="25" as="geometry" />
        </mxCell>
        <mxCell id="jrIEUQr6uG9GV9tWBSDz-40" value="" style="whiteSpace=wrap;html=1;aspect=fixed;" vertex="1" parent="1">
          <mxGeometry x="295" y="90" width="25" height="25" as="geometry" />
        </mxCell>
        <mxCell id="jrIEUQr6uG9GV9tWBSDz-41" value="" style="dashed=0;outlineConnect=0;html=1;align=center;labelPosition=center;verticalLabelPosition=bottom;verticalAlign=top;shape=mxgraph.webicons.apache;gradientColor=#DFDEDE;fontSize=8;strokeWidth=2;" vertex="1" parent="1">
          <mxGeometry x="295" y="92.5" width="20" height="20" as="geometry" />
        </mxCell>
        <mxCell id="jrIEUQr6uG9GV9tWBSDz-42" value="" style="dashed=0;outlineConnect=0;html=1;align=center;labelPosition=center;verticalLabelPosition=bottom;verticalAlign=top;shape=mxgraph.webicons.apache;gradientColor=#DFDEDE;fontSize=8;strokeWidth=2;" vertex="1" parent="1">
          <mxGeometry x="330" y="95" width="20" height="20" as="geometry" />
        </mxCell>
        <mxCell id="jrIEUQr6uG9GV9tWBSDz-43" value="&lt;font style=&quot;font-size: 10px&quot;&gt;AEM&lt;/font&gt;" style="whiteSpace=wrap;html=1;aspect=fixed;" vertex="1" parent="1">
          <mxGeometry x="292.5" y="272.5" width="25" height="25" as="geometry" />
        </mxCell>
        <mxCell id="jrIEUQr6uG9GV9tWBSDz-44" value="&lt;font style=&quot;font-size: 10px&quot;&gt;AEM&lt;/font&gt;" style="whiteSpace=wrap;html=1;aspect=fixed;" vertex="1" parent="1">
          <mxGeometry x="335" y="272.5" width="25" height="25" as="geometry" />
        </mxCell>
        <mxCell id="jrIEUQr6uG9GV9tWBSDz-45" value="&lt;font style=&quot;font-size: 8px&quot;&gt;AEM Job&lt;/font&gt;" style="whiteSpace=wrap;html=1;aspect=fixed;" vertex="1" parent="1">
          <mxGeometry x="297.5" y="370" width="25" height="25" as="geometry" />
        </mxCell>
        <mxCell id="jrIEUQr6uG9GV9tWBSDz-46" value="&lt;font style=&quot;font-size: 8px&quot;&gt;AEM Job&lt;/font&gt;" style="whiteSpace=wrap;html=1;aspect=fixed;" vertex="1" parent="1">
          <mxGeometry x="330" y="367.5" width="25" height="25" as="geometry" />
        </mxCell>
      </root>
    </mxGraphModel>
  </diagram>
</mxfile>
